<svg width="800" height="800" viewBox="0 0 64 64" id="svg5" xmlns="http://www.w3.org/2000/svg"><g id="layer1" transform="translate(-288,-288)"><path d="m298 297h49v6h-49z" id="path26975" style="fill:#3e4f59;fill-opacity:1;fill-rule:evenodd;stroke-width:2;stroke-linecap:round;stroke-linejoin:round;stroke-miterlimit:4.1"/><path d="m298 303h49v40h-49z" id="path26977" style="fill:#acbec2;fill-opacity:1;fill-rule:evenodd;stroke-width:2.00001;stroke-linecap:round;stroke-linejoin:round;stroke-miterlimit:4.1"/><path d="m298 303v40h29.76953a28.484051 41.392605 35.599482 0018.625-40z" id="path26979" style="fill:#e8edee;fill-opacity:1;fill-rule:evenodd;stroke:none;stroke-width:2.00002;stroke-linecap:round;stroke-linejoin:round;stroke-miterlimit:4.1"/><path d="m3e2 296c-1.64501.0-3 1.355-3 3v40c0 .55229.44772 1 1 1 .55229.0 1-.44771 1-1v-40c0-.56413.43587-1 1-1h45c.56413.0 1 .43587 1 1v3h-42c-.55228.0-1 .44772-1 1 0 .55229.44772 1 1 1h42v37c0 .56413-.43587 1-1 1h-49c-.55228.0-1 .44772-1 1 0 .55229.44772 1 1 1h49c1.64501.0 3-1.35499 3-3 0-14 0-28 0-42 0-1.645-1.35499-3-3-3z" id="path26981" style="color:#000000;fill:#000000;fill-rule:evenodd;stroke-linecap:round;stroke-linejoin:round;stroke-miterlimit:4.1"/><path d="m343 299c-.55228.0-1 .44772-1 1 0 .55229.44772 1 1 1 .55229.0 1-.44771 1-1 0-.55228-.44771-1-1-1z" id="path26983" style="color:#000000;fill:#ed7161;fill-opacity:1;fill-rule:evenodd;stroke-linecap:round;stroke-linejoin:round;stroke-miterlimit:4.1;-inkscape-stroke:none"/><path d="m339 299c-.55228.0-1 .44772-1 1 0 .55229.44772 1 1 1 .55229.0 1-.44771 1-1 0-.55228-.44771-1-1-1z" id="path26985" style="color:#000000;fill:#ecba16;fill-opacity:1;fill-rule:evenodd;stroke-linecap:round;stroke-linejoin:round;stroke-miterlimit:4.1;-inkscape-stroke:none"/><path d="m335 299c-.55228.0-1 .44772-1 1 0 .55229.44772 1 1 1 .55229.0 1-.44771 1-1 0-.55228-.44771-1-1-1z" id="path26987" style="color:#000000;fill:#42b05c;fill-opacity:1;fill-rule:evenodd;stroke-linecap:round;stroke-linejoin:round;stroke-miterlimit:4.1;-inkscape-stroke:none"/><path d="m293 342a1 1 0 00-1 1 1 1 0 001 1 1 1 0 001-1 1 1 0 00-1-1z" id="path26989" style="color:#000000;fill:#000000;fill-rule:evenodd;stroke-linecap:round;stroke-linejoin:round;stroke-miterlimit:4.1;-inkscape-stroke:none"/><path d="m301 302c-.55228.0-1 .44772-1 1 0 .55229.44772 1 1 1 .55229.0 1-.44771 1-1 0-.55228-.44771-1-1-1z" id="path26991" style="color:#000000;fill:#000000;fill-rule:evenodd;stroke-linecap:round;stroke-linejoin:round;stroke-miterlimit:4.1;-inkscape-stroke:none"/><g id="path4370"><path d="m319 307.06836a1 1 0 00-1 1v28.86328a1 1 0 001 1 1 1 0 001-1v-28.86328a1 1 0 00-1-1z" id="path21765" style="color:#000000;fill:#000000;fill-rule:evenodd;stroke-linecap:round;stroke-linejoin:round;stroke-miterlimit:4.1"/></g><g id="path4384"><path d="m310 326a1 1 0 00-1 1 1 1 0 001 1h5a1 1 0 001-1 1 1 0 00-1-1z" id="path21771" style="color:#000000;fill:#000000;fill-rule:evenodd;stroke-linecap:round;stroke-linejoin:round;stroke-miterlimit:4.1"/></g><g id="path4372"><path d="m303 326a1 1 0 00-1 1 1 1 0 001 1h3a1 1 0 001-1 1 1 0 00-1-1z" id="path21777" style="color:#000000;fill:#000000;fill-rule:evenodd;stroke-linecap:round;stroke-linejoin:round;stroke-miterlimit:4.1"/></g><g id="path4378"><path d="m303 332a1 1 0 00-1 1 1 1 0 001 1h12a1 1 0 001-1 1 1 0 00-1-1z" id="path21783" style="color:#000000;fill:#000000;fill-rule:evenodd;stroke-linecap:round;stroke-linejoin:round;stroke-miterlimit:4.1"/></g><g id="path4396"><path d="m332 309a1 1 0 00-1 1 1 1 0 001 1h9a1 1 0 001-1 1 1 0 00-1-1z" id="path21789" style="color:#000000;fill:#000000;fill-rule:evenodd;stroke-linecap:round;stroke-linejoin:round;stroke-miterlimit:4.1"/></g><path d="m324 309c-.55228.0-1 .44771-1 1 0 .55228.44772 1 1 1 .55229.0 1-.44772 1-1 0-.55229-.44771-1-1-1z" id="path6610" style="color:#000000;fill:#000000;fill-rule:evenodd;stroke-linecap:round;stroke-linejoin:round;stroke-miterlimit:4.1;-inkscape-stroke:none"/><g id="path6612"><path d="m332 325a1 1 0 00-1 1 1 1 0 001 1h9a1 1 0 001-1 1 1 0 00-1-1z" id="path21801" style="color:#000000;fill:#000000;fill-rule:evenodd;stroke-linecap:round;stroke-linejoin:round;stroke-miterlimit:4.1"/></g><path d="m324 325c-.55228.0-1 .44771-1 1 0 .55228.44772 1 1 1 .55229.0 1-.44772 1-1 0-.55229-.44771-1-1-1z" id="path6614" style="color:#000000;fill:#000000;fill-rule:evenodd;stroke-linecap:round;stroke-linejoin:round;stroke-miterlimit:4.1;-inkscape-stroke:none"/><g id="path6616"><path d="m324 317a1 1 0 00-1 1 1 1 0 001 1h17a1 1 0 001-1 1 1 0 00-1-1z" id="path21795" style="color:#000000;fill:#000000;fill-rule:evenodd;stroke-linecap:round;stroke-linejoin:round;stroke-miterlimit:4.1"/></g><g id="path7344"><path d="m324 334a1 1 0 00-1 1 1 1 0 001 1h17a1 1 0 001-1 1 1 0 00-1-1z" id="path21807" style="color:#000000;fill:#000000;fill-rule:evenodd;stroke-linecap:round;stroke-linejoin:round;stroke-miterlimit:4.1;-inkscape-stroke:none"/></g><path d="m312.00001 312a2.99999 2.99999.0 01-2.99999 3 2.99999 2.99999.0 01-2.99999-3 2.99999 2.99999.0 012.99999-2.99998A2.99999 2.99999.0 01312.00001 312z" id="path16444" style="fill:#ffa221;fill-opacity:1;fill-rule:evenodd;stroke:none;stroke-width:2;stroke-linecap:round;stroke-linejoin:round;stroke-miterlimit:4.1"/><path d="m304.00002 321c0-3.31371 2.23858-6 5-6S314 317.68629 314 321z" id="path16446" style="fill:#ffa221;fill-opacity:1;fill-rule:evenodd;stroke:none;stroke-width:2.00001;stroke-linecap:round;stroke-linejoin:round;stroke-miterlimit:4.1"/><path d="m307.82621 309.24415a2.99999 2.99999.0 00-1.82617 2.75586 2.99999 2.99999.0 003 3 2.99999 2.99999.0 00.68555-.0801 5.7604036 9.6529589.0 00-1.85938-5.67578z" id="path16448" style="fill:#ffc343;fill-opacity:1;fill-rule:evenodd;stroke-width:2;stroke-linecap:round;stroke-linejoin:round;stroke-miterlimit:4.1"/><path d="m309.00004 315.00001c-2.76142.0-5 2.68629-5 6h5.07227a5.7604036 9.6529589.0 00.6875-4.54297 5.7604036 9.6529589.0 00-.0606-1.39844C309.47078 315.0202 309.23732 315 309.00004 315z" id="path16450" style="fill:#ffc343;fill-opacity:1;fill-rule:evenodd;stroke-width:2;stroke-linecap:round;stroke-linejoin:round;stroke-miterlimit:4.1"/><path d="m309.00004 308.00001c-2.19728.0-3.99999 1.80272-4 4 0 1.09667.44883 2.09529 1.17188 2.82031-1.91443 1.19449-3.17188 3.55834-3.17188 6.17969a1.000105 1.000105.0 001 1h4a1.000005 1.000005.0 001-1 1.000005 1.000005.0 00-1-1h-2.83594c.39188-2.32414 1.98868-4 3.83594-4s3.44406 1.67586 3.83594 4h-.83594a1.000005 1.000005.0 00-1 1 1.000005 1.000005.0 001 1h2a1.000105 1.000105.0 001-1c0-2.62135-1.25745-4.9852-3.17188-6.17969.72305-.72502 1.17188-1.72364 1.17188-2.82031-1e-5-2.19728-1.80272-4-4-4zm0 2c1.1164.0 2 .8836 2 2 0 1.11641-.88359 2-2 2s-2-.88359-2-2c0-1.1164.8836-2 2-2z" id="path16452" style="color:#000000;fill:#000000;fill-rule:evenodd;stroke-linecap:round;stroke-linejoin:round;stroke-miterlimit:4.1"/></g></svg>